<?xml version="1.0" encoding="UTF-8" standalone="no"?>
<!DOCTYPE svg PUBLIC "-//W3C//DTD SVG 1.1//EN" "http://www.w3.org/Graphics/SVG/1.1/DTD/svg11.dtd">
<!-- Generated by Microsoft Visio, SVG Export SGX2-alloc-direct.svg Page-1 -->
<svg xmlns="http://www.w3.org/2000/svg" xmlns:xlink="http://www.w3.org/1999/xlink" xmlns:ev="http://www.w3.org/2001/xml-events"
		width="6.005in" height="4.055in" viewBox="0 0 432.36 291.96" xml:space="preserve" color-interpolation-filters="sRGB"
		class="st14">
	<style type="text/css">
	<![CDATA[
		.st1 {fill:#9ab3d1;stroke:#1f497d;stroke-linecap:round;stroke-linejoin:round;stroke-width:0.72}
		.st2 {stroke:#1f497d;stroke-dasharray:5.04,3.6;stroke-linecap:round;stroke-linejoin:round;stroke-width:0.72}
		.st3 {fill:#000000;font-family:Arial;font-size:1.00001em;font-weight:bold}
		.st4 {marker-end:url(#mrkr4-20);stroke:#1f497d;stroke-linecap:round;stroke-linejoin:round;stroke-width:0.25}
		.st5 {fill:#1f497d;fill-opacity:1;stroke:#1f497d;stroke-opacity:1;stroke-width:0.07163323782235}
		.st6 {fill:#ffffff;stroke:none;stroke-linecap:butt;stroke-width:7.2}
		.st7 {fill:#000000;font-family:Arial;font-size:0.666664em}
		.st8 {font-size:1em}
		.st9 {marker-end:url(#mrkr3-58);stroke:#1f497d;stroke-dasharray:1.75,1.25;stroke-linecap:round;stroke-linejoin:round;stroke-width:0.25}
		.st10 {fill:#9ab3d1;fill-opacity:0;stroke:#1f497d;stroke-linecap:round;stroke-linejoin:round;stroke-width:0.72}
		.st11 {fill:#000000;font-family:Arial;font-size:0.666664em;font-weight:bold}
		.st12 {fill:none}
		.st13 {fill:#000000;font-family:Arial;font-size:0.833336em;font-weight:bold}
		.st14 {fill:none;fill-rule:evenodd;font-size:12px;overflow:visible;stroke-linecap:square;stroke-miterlimit:3}
	]]>
	</style>

	<defs id="Markers">
		<g id="lend4">
			<path d="M 2 1 L 0 0 L 2 -1 L 2 1 " style="stroke:none"/>
		</g>
		<marker id="mrkr4-20" class="st5" refX="-27.92" orient="auto" markerUnits="strokeWidth" overflow="visible">
			<use xlink:href="#lend4" transform="scale(-13.96,-13.96) "/>
		</marker>
		<g id="lend3">
			<path d="M 2 1 L 0 0 L 2 -1 " style="stroke-linecap:round;stroke-linejoin:round;fill:none"/>
		</g>
		<marker id="mrkr3-58" class="st5" orient="auto" markerUnits="strokeWidth" overflow="visible">
			<use xlink:href="#lend3" transform="scale(-13.96,-13.96) "/>
		</marker>
	</defs>
	<g>
		<title>Page-1</title>
		<g id="group77-1" transform="translate(0.36,-28.8)">
			<title>Sheet.77</title>
			<g id="group11-2" transform="translate(346.5,-234)">
				<title>Object lifeline.11</title>
				<desc>CPU-sgx</desc>
				<g id="shape12-3" transform="translate(6.75,0)">
					<title>Sheet.12</title>
					<rect x="0" y="266.76" width="54" height="25.2" class="st1"/>
				</g>
				<g id="shape13-5" transform="translate(24.75,-28.8)">
					<title>Sheet.13</title>
					<path d="M9 291.96 a0 0 0 1 1 0 0 a0 0 0 1 1 0 0 Z" class="st1"/>
				</g>
				<g id="shape14-7" transform="translate(22.5,262.8)">
					<title>Sheet.14</title>
				</g>
				<g id="shape15-9" transform="translate(325.71,291.96) rotate(90)">
					<title>Sheet.15</title>
					<path d="M0 291.96 L244.8 291.96" class="st2"/>
				</g>
				<g id="shape11-12">
					<rect x="0" y="266.76" width="67.5" height="25.2" class="st1"/>
					<text x="8.75" y="282.96" class="st3">CPU-sgx</text>				</g>
			</g>
			<g id="shape16-15" transform="translate(144,-189)">
				<title>Message.50</title>
				<desc>mmap(addr, len, PROT_READ | PROT_WRITE, MAP_SHARED|MAP_POPULA...</desc>
				<path d="M0 282.96 L145.66 282.96" class="st4"/>
				<rect x="21.2729" y="244.185" width="121.666" height="38.3997" class="st6"/>
				<text x="52.98" y="251.39" class="st7">mmap(addr, len,  <tspan x="27.06" dy="1.2em" class="st8">PROT</tspan>_READ | PROT_WRITE, <tspan
							x="21.27" dy="1.2em" class="st8">MAP</tspan>_SHARED|MAP_POPULATE <tspan x="51.51" dy="1.2em"
							class="st8">|</tspan>MAP_FIXED, fd)</text>			</g>
			<g id="group24-26" transform="translate(0,-234)">
				<title>Object lifeline.24</title>
				<desc>Enclave</desc>
				<g id="shape25-27">
					<title>Sheet.25</title>
					<rect x="0" y="266.76" width="54" height="25.2" class="st1"/>
				</g>
				<g id="shape26-29" transform="translate(18,-28.8)">
					<title>Sheet.26</title>
					<path d="M9 291.96 a0 0 0 1 1 0 0 a0 0 0 1 1 0 0 Z" class="st1"/>
				</g>
				<g id="shape27-31" transform="translate(18,262.8)">
					<title>Sheet.27</title>
				</g>
				<g id="shape28-33" transform="translate(318.96,291.96) rotate(90)">
					<title>Sheet.28</title>
					<path d="M0 291.96 L244.8 291.96" class="st2"/>
				</g>
				<g id="shape24-36">
					<rect x="0" y="266.76" width="54" height="25.2" class="st1"/>
					<text x="4.32" y="282.96" class="st3">Enclave</text>				</g>
			</g>
			<g id="shape29-39" transform="translate(27,-207)">
				<title>Message.29</title>
				<desc>OCALL_mmap</desc>
				<path d="M0 282.96 L110.02 282.96" class="st4"/>
				<rect x="32.045" y="278.16" width="52.9099" height="9.59985" class="st6"/>
				<text x="32.05" y="285.36" class="st7">OCALL_mmap</text>			</g>
			<g id="shape30-46" transform="translate(296.64,-135)">
				<title>Message.30</title>
				<desc>EAUG</desc>
				<path d="M0 282.96 L76.63 282.96" class="st4"/>
				<rect x="30.4691" y="278.16" width="22.6717" height="9.59985" class="st6"/>
				<text x="30.47" y="285.36" class="st7">EAUG</text>			</g>
			<g id="shape32-53" transform="translate(296.64,-117)">
				<title>Return Message.53</title>
				<desc>address</desc>
				<path d="M0 282.96 L-152.64 282.96" class="st9"/>
				<rect x="-90.5505" y="278.16" width="28.4612" height="9.59985" class="st6"/>
				<text x="-90.55" y="285.36" class="st7">address</text>			</g>
			<g id="shape33-61" transform="translate(27,-63)">
				<title>Message.33</title>
				<desc>EACCEPT</desc>
				<path d="M0 282.96 L346.27 282.96" class="st4"/>
				<rect x="157.733" y="278.16" width="37.7847" height="9.59985" class="st6"/>
				<text x="157.73" y="285.36" class="st7">EACCEPT</text>			</g>
			<g id="group58-68" transform="translate(247.703,-133.2)">
				<title>Loop fragment</title>
				<g id="shape58-69">
					<rect x="0" y="243.585" width="156.938" height="48.375" class="st10"/>
				</g>
				<g id="shape59-71" transform="translate(0,-30.7714)">
					<title>Sheet.59</title>
					<desc>loop</desc>
					<path d="M0 291.96 L56.8 291.96 L64 284.76 L64 274.36 L0 274.36 L0 291.96 Z" class="st1"/>
					<text x="4" y="285.56" class="st11">loop</text>				</g>
				<g id="shape60-74" transform="translate(0,-13.1679)">
					<title>Sheet.60</title>
					<desc>[for each page]</desc>
					<text x="4" y="285.56" class="st7">[for each page]</text>				</g>
			</g>
			<g id="group61-76" transform="translate(9,-56.7)">
				<title>Loop fragment.61</title>
				<g id="shape61-77">
					<rect x="0" y="233.46" width="400.5" height="58.5" class="st10"/>
				</g>
				<g id="shape62-79" transform="translate(0,-40.8964)">
					<title>Sheet.62</title>
					<desc>loop</desc>
					<path d="M0 291.96 L56.8 291.96 L64 284.76 L64 274.36 L0 274.36 L0 291.96 Z" class="st1"/>
					<text x="4" y="285.56" class="st11">loop</text>				</g>
				<g id="shape63-82" transform="translate(0,-23.2929)">
					<title>Sheet.63</title>
					<desc>[for each page]</desc>
					<text x="4" y="285.56" class="st7">[for each page]</text>				</g>
			</g>
			<g id="shape64-84" transform="translate(18,-36)">
				<title>Self Message.52</title>
				<desc>use the new pages</desc>
				<path d="M9 291.96 L27 291.96 L27 327.96 L15.98 327.96" class="st4"/>
				<rect x="-2.07988" y="306.96" width="67.1597" height="9.59985" class="st6"/>
				<text x="-2.08" y="314.16" class="st7">use the new pages</text>			</g>
			<g id="shape68-91" transform="translate(144,-117)">
				<title>Return Message.68</title>
				<path d="M0 282.96 L-117 282.96" class="st9"/>
			</g>
			<g id="shape76-96" transform="translate(103.14,-124.2)">
				<title>Interaction operand</title>
				<desc>[Kernel decides to EAUG pages now Otherwise this reduces to #...</desc>
				<path d="M0 291.96 L328.5 291.96 L328.5 228.96 L0 228.96 L0 291.96 Z" class="st12"/>
				<path d="M328.5 228.96 L0 228.96" class="st2"/>
				<text x="4" y="240.16" class="st7">[Kernel decides to EAUG pages now <tspan x="4" dy="1.2em" class="st8">Otherwise this reduces to </tspan><tspan
							x="4" dy="1.2em" class="st8">#</tspan>PF based allocation flow]</text>			</g>
			<g id="group1-102" transform="translate(105.75,-234)">
				<title>Object lifeline</title>
				<desc>Untrusted runtime</desc>
				<g id="shape2-103" transform="translate(11.25,0)">
					<title>Sheet.2</title>
					<rect x="0" y="266.76" width="54" height="25.2" class="st1"/>
				</g>
				<g id="shape3-105" transform="translate(29.25,-28.8)">
					<title>Sheet.3</title>
					<path d="M9 291.96 a0 0 0 1 1 0 0 a0 0 0 1 1 0 0 Z" class="st1"/>
				</g>
				<g id="shape4-107" transform="translate(25.5,262.8)">
					<title>Sheet.4</title>
				</g>
				<g id="shape5-109" transform="translate(330.21,291.96) rotate(90)">
					<title>Sheet.5</title>
					<path d="M0 291.96 L244.8 291.96" class="st2"/>
				</g>
				<g id="shape1-112">
					<rect x="0" y="266.76" width="76.5" height="25.2" class="st1"/>
					<text x="14.64" y="276.36" class="st13">Untrusted <tspan x="19.92" dy="1.2em" class="st8">runtime</tspan></text>				</g>
			</g>
			<g id="group6-116" transform="translate(269.64,-234)">
				<title>Object lifeline.6</title>
				<desc>kernel</desc>
				<g id="shape7-117">
					<title>Sheet.7</title>
					<rect x="0" y="266.76" width="54" height="25.2" class="st1"/>
				</g>
				<g id="shape8-119" transform="translate(18,-28.8)">
					<title>Sheet.8</title>
					<path d="M9 291.96 a0 0 0 1 1 0 0 a0 0 0 1 1 0 0 Z" class="st1"/>
				</g>
				<g id="shape9-121" transform="translate(18,262.8)">
					<title>Sheet.9</title>
				</g>
				<g id="shape10-123" transform="translate(318.96,291.96) rotate(90)">
					<title>Sheet.10</title>
					<path d="M0 291.96 L244.8 291.96" class="st2"/>
				</g>
				<g id="shape6-126">
					<rect x="0" y="266.76" width="54" height="25.2" class="st1"/>
					<text x="9.32" y="282.96" class="st3">kernel</text>				</g>
			</g>
		</g>
	</g>
</svg>
