<?xml version="1.0" encoding="UTF-8" standalone="no"?>
<!DOCTYPE svg PUBLIC "-//W3C//DTD SVG 1.1//EN" "http://www.w3.org/Graphics/SVG/1.1/DTD/svg11.dtd">
<!-- Generated by Microsoft Visio, SVG Export SGX2-eaccept2.svg eacceptcopy2 -->
<svg xmlns="http://www.w3.org/2000/svg" xmlns:xlink="http://www.w3.org/1999/xlink" xmlns:ev="http://www.w3.org/2001/xml-events"
		width="6.385in" height="6.435in" viewBox="0 0 459.72 463.32" xml:space="preserve" color-interpolation-filters="sRGB"
		class="st16">
	<style type="text/css">
	<![CDATA[
		.st1 {fill:none}
		.st2 {stroke:#1f497d;stroke-dasharray:5.04,3.6;stroke-linecap:round;stroke-linejoin:round;stroke-width:0.72}
		.st3 {fill:#000000;font-family:Arial;font-size:0.666664em}
		.st4 {fill:#9ab3d1;stroke:#1f497d;stroke-linecap:round;stroke-linejoin:round;stroke-width:0.72}
		.st5 {fill:#000000;font-family:Arial;font-size:0.833336em;font-weight:bold}
		.st6 {font-size:1em}
		.st7 {fill:#000000;font-family:Arial;font-size:1.00001em;font-weight:bold}
		.st8 {marker-end:url(#mrkr4-50);stroke:#1f497d;stroke-linecap:round;stroke-linejoin:round;stroke-width:0.25}
		.st9 {fill:#1f497d;fill-opacity:1;stroke:#1f497d;stroke-opacity:1;stroke-width:0.07163323782235}
		.st10 {fill:#ffffff;stroke:none;stroke-linecap:butt;stroke-width:7.2}
		.st11 {marker-end:url(#mrkr3-90);stroke:#1f497d;stroke-dasharray:1.75,1.25;stroke-linecap:round;stroke-linejoin:round;stroke-width:0.25}
		.st12 {marker-end:url(#mrkr3-90);stroke:#1f497d;stroke-linecap:round;stroke-linejoin:round;stroke-width:0.25}
		.st13 {marker-end:url(#mrkr13-119);stroke:#1f497d;stroke-linecap:round;stroke-linejoin:round;stroke-width:0.5}
		.st14 {fill:#1f497d;fill-opacity:1;stroke:#1f497d;stroke-opacity:1;stroke-width:0.16556291390728}
		.st15 {fill:#ffffff;stroke:none;stroke-linecap:butt}
		.st16 {fill:none;fill-rule:evenodd;font-size:12px;overflow:visible;stroke-linecap:square;stroke-miterlimit:3}
	]]>
	</style>

	<defs id="Markers">
		<g id="lend4">
			<path d="M 2 1 L 0 0 L 2 -1 L 2 1 " style="stroke:none"/>
		</g>
		<marker id="mrkr4-50" class="st9" refX="-27.92" orient="auto" markerUnits="strokeWidth" overflow="visible">
			<use xlink:href="#lend4" transform="scale(-13.96,-13.96) "/>
		</marker>
		<g id="lend3">
			<path d="M 2 1 L 0 0 L 2 -1 " style="stroke-linecap:round;stroke-linejoin:round;fill:none"/>
		</g>
		<marker id="mrkr3-90" class="st9" orient="auto" markerUnits="strokeWidth" overflow="visible">
			<use xlink:href="#lend3" transform="scale(-13.96,-13.96) "/>
		</marker>
		<g id="lend13">
			<path d="M 3 1 L 0 0 L 3 -1 L 3 1 " style="stroke:none"/>
		</g>
		<marker id="mrkr13-119" class="st14" refX="-18.12" orient="auto" markerUnits="strokeWidth" overflow="visible">
			<use xlink:href="#lend13" transform="scale(-6.04,-6.04) "/>
		</marker>
	</defs>
	<g>
		<title>eacceptcopy2</title>
		<g id="shape93-1" transform="translate(36.72,-31.86)">
			<title>Interaction operand</title>
			<desc>[Kernel directly EAUG ]</desc>
			<path d="M0 463.32 L404.64 463.32 L404.64 142.28 L0 142.28 L0 463.32 Z" class="st1"/>
			<path d="M404.64 142.28 L0 142.28" class="st2"/>
			<text x="4" y="153.48" class="st3">[Kernel directly EAUG ]</text>		</g>
		<g id="group1-5" transform="translate(124.11,-416.16)">
			<title>Object lifeline</title>
			<desc>Untrusted runtime</desc>
			<g id="shape2-6" transform="translate(11.25,0)">
				<title>Sheet.2</title>
				<rect x="0" y="438.12" width="54" height="25.2" class="st4"/>
			</g>
			<g id="shape3-8" transform="translate(29.25,-28.8)">
				<title>Sheet.3</title>
				<path d="M9 463.32 a0 0 0 1 1 0 0 a0 0 0 1 1 0 0 Z" class="st4"/>
			</g>
			<g id="shape4-10" transform="translate(25.5,407.16)">
				<title>Sheet.4</title>
			</g>
			<g id="shape5-12" transform="translate(501.57,463.32) rotate(90)">
				<title>Sheet.5</title>
				<path d="M0 463.32 L389.16 463.32" class="st2"/>
			</g>
			<g id="shape1-15">
				<rect x="0" y="438.12" width="76.5" height="25.2" class="st4"/>
				<text x="14.64" y="447.72" class="st5">Untrusted <tspan x="19.92" dy="1.2em" class="st6">runtime</tspan></text>			</g>
		</g>
		<g id="group6-19" transform="translate(265.86,-416.16)">
			<title>Object lifeline.6</title>
			<desc>kernel</desc>
			<g id="shape7-20">
				<title>Sheet.7</title>
				<rect x="0" y="438.12" width="54" height="25.2" class="st4"/>
			</g>
			<g id="shape8-22" transform="translate(18,-28.8)">
				<title>Sheet.8</title>
				<path d="M9 463.32 a0 0 0 1 1 0 0 a0 0 0 1 1 0 0 Z" class="st4"/>
			</g>
			<g id="shape9-24" transform="translate(18,402.66)">
				<title>Sheet.9</title>
			</g>
			<g id="shape10-26" transform="translate(490.32,463.32) rotate(90)">
				<title>Sheet.10</title>
				<path d="M0 463.32 L384.66 463.32" class="st2"/>
			</g>
			<g id="shape6-29">
				<rect x="0" y="438.12" width="54" height="25.2" class="st4"/>
				<text x="9.32" y="454.32" class="st7">kernel</text>			</g>
		</g>
		<g id="group11-32" transform="translate(364.86,-416.16)">
			<title>Object lifeline.11</title>
			<desc>CPU-sgx</desc>
			<g id="shape12-33" transform="translate(6.75,0)">
				<title>Sheet.12</title>
				<rect x="0" y="438.12" width="54" height="25.2" class="st4"/>
			</g>
			<g id="shape13-35" transform="translate(24.75,-28.8)">
				<title>Sheet.13</title>
				<path d="M9 463.32 a0 0 0 1 1 0 0 a0 0 0 1 1 0 0 Z" class="st4"/>
			</g>
			<g id="shape14-37" transform="translate(22.5,407.16)">
				<title>Sheet.14</title>
			</g>
			<g id="shape15-39" transform="translate(497.07,463.32) rotate(90)">
				<title>Sheet.15</title>
				<path d="M0 463.32 L389.16 463.32" class="st2"/>
			</g>
			<g id="shape11-42">
				<rect x="0" y="438.12" width="67.5" height="25.2" class="st4"/>
				<text x="8.75" y="454.32" class="st7">CPU-sgx</text>			</g>
		</g>
		<g id="shape16-45" transform="translate(162.36,-353.16)">
			<title>Message.50</title>
			<desc>mmap(addr, len, PROT_READ | PROT_WRITE, MAP_SHARED|MAP_FIXED ...</desc>
			<path d="M0 454.32 L123.52 454.32" class="st8"/>
			<rect x="7.95558" y="414.42" width="110.089" height="38.3997" class="st10"/>
			<text x="33.88" y="421.62" class="st3">mmap(addr, len,  <tspan x="7.96" dy="1.2em" class="st6">PROT</tspan>_READ | PROT_WRITE, <tspan
						x="11.73" dy="1.2em" class="st6">MAP</tspan>_SHARED|MAP_FIXED <tspan x="56.11" dy="1.2em" class="st6">, </tspan>fd)</text>		</g>
		<g id="group24-56" transform="translate(18.36,-416.16)">
			<title>Object lifeline.24</title>
			<desc>Enclave</desc>
			<g id="shape25-57">
				<title>Sheet.25</title>
				<rect x="0" y="438.12" width="54" height="25.2" class="st4"/>
			</g>
			<g id="shape26-59" transform="translate(18,-28.8)">
				<title>Sheet.26</title>
				<path d="M9 463.32 a0 0 0 1 1 0 0 a0 0 0 1 1 0 0 Z" class="st4"/>
			</g>
			<g id="shape27-61" transform="translate(18,407.16)">
				<title>Sheet.27</title>
			</g>
			<g id="shape28-63" transform="translate(490.32,463.32) rotate(90)">
				<title>Sheet.28</title>
				<path d="M0 463.32 L389.16 463.32" class="st2"/>
			</g>
			<g id="shape24-66">
				<rect x="0" y="438.12" width="54" height="25.2" class="st4"/>
				<text x="4.32" y="454.32" class="st7">Enclave</text>			</g>
		</g>
		<g id="shape29-69" transform="translate(45.36,-389.16)">
			<title>Message.50.29</title>
			<desc>OCALL_mmap</desc>
			<path d="M0 454.32 L110.02 454.32" class="st8"/>
			<rect x="32.045" y="449.52" width="52.9099" height="9.59985" class="st10"/>
			<text x="32.05" y="456.72" class="st3">OCALL_mmap</text>		</g>
		<g id="shape30-76" transform="translate(292.86,-335.16)">
			<title>Message.50.30</title>
			<desc>EAUG for each page EPCM.pending=1</desc>
			<path d="M0 454.32 L98.77 454.32" class="st8"/>
			<rect x="21.8154" y="446.58" width="62.9291" height="28.7996" class="st10"/>
			<text x="41.94" y="453.78" class="st3">EAUG <tspan x="28.82" dy="1.2em" class="st6">for each page </tspan><tspan
						x="21.82" dy="1.2em" class="st6">EPCM</tspan>.pending=1</text>		</g>
		<g id="shape32-85" transform="translate(292.86,-281.16)">
			<title>Return Message.32</title>
			<desc>address</desc>
			<path d="M0 454.32 L-130.5 454.32" class="st11"/>
			<rect x="-79.4805" y="449.52" width="28.4612" height="9.59985" class="st10"/>
			<text x="-79.48" y="456.72" class="st3">address</text>		</g>
		<g id="shape66-93" transform="translate(398.61,-245.16)">
			<title>Asynchronous Message.55</title>
			<desc>#PF (EPCM.pending)</desc>
			<path d="M0 454.32 L-105.75 454.32" class="st12"/>
			<rect x="-90.8903" y="449.52" width="76.0306" height="9.59985" class="st10"/>
			<text x="-90.89" y="456.72" class="st3">#PF (EPCM.pending)</text>		</g>
		<g id="shape83-100" transform="translate(162.36,-281.16)">
			<title>Return Message.83</title>
			<path d="M0 454.32 L-117 454.32" class="st11"/>
		</g>
		<g id="group95-105" transform="translate(48.015,-180.36)">
			<title>Sheet.95</title>
			<g id="shape33-106" transform="translate(-2.655,7.2)">
				<title>Message.50.33</title>
				<desc>EACCEPTCOPY(code, RX) load code and set EPCM.RX</desc>
				<path d="M0 454.32 L346.27 454.32" class="st8"/>
				<rect x="123.865" y="437.52" width="101.831" height="19.1997" class="st10"/>
				<text x="125.43" y="444.72" class="st3">EACCEPTCOPY(code, RX) <tspan x="123.86" dy="1.2em" class="st6">load code and set EPCM</tspan>.RX</text>			</g>
		</g>
		<g id="shape98-114" transform="translate(45.36,-263.16)">
			<title>Dynamic connector</title>
			<desc>Execute code not loaded</desc>
			<path d="M0 454.32 L344.19 454.32" class="st13"/>
			<rect x="152.387" y="444.72" width="48.4763" height="19.1997" class="st10"/>
			<text x="152.39" y="451.92" class="st3">Execute code <tspan x="156.83" dy="1.2em" class="st6"> </tspan>not loaded</text>		</g>
		<g id="shape105-123" transform="translate(292.86,-227.16)">
			<title>Message.50.105</title>
			<desc>vDSO callback</desc>
			<path d="M0 454.32 L-123.52 454.32" class="st8"/>
			<rect x="-91.4806" y="449.52" width="52.4611" height="9.59985" class="st10"/>
			<text x="-91.48" y="456.72" class="st3">vDSO callback</text>		</g>
		<g id="shape106-130" transform="translate(162.36,-227.16)">
			<title>Message.50.106</title>
			<desc>ExceptionHandler</desc>
			<path d="M0 454.32 L-110.02 454.32" class="st8"/>
			<rect x="-90.0742" y="449.52" width="63.1483" height="9.59985" class="st10"/>
			<text x="-90.07" y="456.72" class="st3">ExceptionHandler</text>		</g>
		<g id="shape107-137" transform="translate(45.36,-83.16)">
			<title>Return Message.53.107</title>
			<desc>return</desc>
			<path d="M0 454.32 L117 454.32" class="st11"/>
			<rect x="48.0507" y="449.52" width="20.8985" height="9.59985" class="st10"/>
			<text x="48.05" y="456.72" class="st3">return</text>		</g>
		<g id="shape108-144" transform="translate(162.36,-83.16)">
			<title>Message.108</title>
			<desc>ERESUME</desc>
			<path d="M0 454.32 L229.27 454.32" class="st8"/>
			<rect x="98.3439" y="449.52" width="39.562" height="9.59985" class="st10"/>
			<text x="98.34" y="456.72" class="st3">ERESUME</text>		</g>
		<g id="shape109-151" transform="translate(45.36,-47.16)">
			<title>Dynamic connector.109</title>
			<desc>Retry: execute code</desc>
			<path d="M0 454.32 L344.19 454.32" class="st13"/>
			<rect x="141.051" y="449.52" width="71.1483" height="9.59985" class="st10"/>
			<text x="141.05" y="456.72" class="st3">Retry: execute code</text>		</g>
		<g id="shape111-158" transform="translate(45.36,-155.16)">
			<title>Message.50.111</title>
			<desc>OCall_mprotect(RX)</desc>
			<path d="M0 454.32 L110.02 454.32" class="st8"/>
			<rect x="22.4921" y="449.52" width="72.0157" height="9.59985" class="st10"/>
			<text x="22.49" y="456.72" class="st3">OCall_mprotect(RX)</text>		</g>
		<g id="shape112-165" transform="translate(162.36,-155.16)">
			<title>Message.112</title>
			<desc>mprotect(RX)</desc>
			<path d="M0 454.32 L123.52 454.32" class="st8"/>
			<rect x="29.4987" y="446.82" width="47.5626" height="9.59985" class="st10"/>
			<text x="29.5" y="454.02" class="st3">mprotect(RX)</text>		</g>
		<g id="shape114-172" transform="translate(283.86,-146.16)">
			<title>Message.50.114</title>
			<desc>update PTE.RW-&#62;RX</desc>
			<path d="M9 463.32 L27 463.32 L27 481.32 L15.98 481.32" class="st8"/>
			<rect x="19.6554" y="469.38" width="76.2492" height="19.1997" class="st10"/>
			<text x="19.66" y="476.58" class="st3">update PTE.RW-&#62;RX</text>		</g>
		<g id="shape115-179" transform="translate(292.86,-101.16)">
			<title>Return Message.53.115</title>
			<desc>success</desc>
			<path d="M0 454.32 L-130.5 454.32" class="st11"/>
			<rect x="-79.6994" y="449.52" width="28.899" height="9.59985" class="st10"/>
			<text x="-79.7" y="456.72" class="st3">success</text>		</g>
		<g id="shape116-186" transform="translate(162.36,-101.16)">
			<title>Return Message.53.116</title>
			<desc>success</desc>
			<path d="M0 454.32 L-117 454.32" class="st11"/>
			<rect x="-72.9494" y="449.52" width="28.899" height="9.59985" class="st15"/>
			<text x="-72.95" y="456.72" class="st3">success</text>		</g>
		<g id="shape119-193" transform="translate(398.61,-65.16)">
			<title>Return Message.53.119</title>
			<path d="M0 454.32 L-353.25 454.32" class="st11"/>
		</g>
		<g id="shape120-198" transform="translate(36.36,-218.16)">
			<title>Message.50.120</title>
			<desc>load code page</desc>
			<path d="M9 463.32 L27 463.32 L27 481.32 L15.98 481.32" class="st8"/>
			<rect x="34.9228" y="469.32" width="54.7144" height="9.59985" class="st10"/>
			<text x="34.92" y="476.52" class="st3">load code page</text>		</g>
		<g id="shape122-205" transform="translate(283.86,-326.16)">
			<title>Message.50.122</title>
			<desc>Set PTE.RW</desc>
			<path d="M9 463.32 L27 463.32 L27 481.32 L15.98 481.32" class="st8"/>
			<rect x="21.6105" y="469.68" width="45.3389" height="9.59985" class="st15"/>
			<text x="21.61" y="476.88" class="st3">Set PTE.RW</text>		</g>
		<g id="shape125-212" transform="translate(398.61,-29.16)">
			<title>Return Message.53</title>
			<desc>success</desc>
			<path d="M0 454.32 L-353.25 454.32" class="st11"/>
			<rect x="-191.074" y="449.52" width="28.899" height="9.59985" class="st10"/>
			<text x="-191.07" y="456.72" class="st3">success</text>		</g>
	</g>
</svg>
