<?xml version="1.0" encoding="UTF-8" standalone="no"?>
<!DOCTYPE svg PUBLIC "-//W3C//DTD SVG 1.1//EN" "http://www.w3.org/Graphics/SVG/1.1/DTD/svg11.dtd">
<!-- Generated by Microsoft Visio, SVG Export SGX2_emm_arch.svg Page-2 -->
<svg xmlns="http://www.w3.org/2000/svg" xmlns:xlink="http://www.w3.org/1999/xlink" xmlns:ev="http://www.w3.org/2001/xml-events"
		width="7.18502in" height="9.25161in" viewBox="0 0 517.322 666.116" xml:space="preserve" color-interpolation-filters="sRGB"
		class="st27">
	<style type="text/css">
	<![CDATA[
		.st1 {visibility:visible}
		.st2 {fill:#5b9bd5;fill-opacity:0.22;filter:url(#filter_2);stroke:#5b9bd5;stroke-opacity:0.22}
		.st3 {fill:#5b9bd5;stroke:#c7c8c8;stroke-width:0.25}
		.st4 {fill:#feffff;font-family:Calibri;font-size:0.833336em}
		.st5 {fill:#ffffff;stroke:#70ad47;stroke-width:1}
		.st6 {fill:#70ad47;font-family:Calibri;font-size:1.00001em}
		.st7 {font-size:1em}
		.st8 {fill:#70ad47;fill-opacity:0.22;filter:url(#filter_2);stroke:#70ad47;stroke-opacity:0.22}
		.st9 {fill:url(#grad0-18);stroke:#c7c8c8;stroke-width:0.25}
		.st10 {fill:#5b9bd5;fill-opacity:0.25;filter:url(#filter_2);stroke:#5b9bd5;stroke-opacity:0.25}
		.st11 {fill:url(#grad0-18);stroke:#40709c;stroke-width:0.75}
		.st12 {marker-end:url(#mrkr4-33);stroke:#5b9bd5;stroke-dasharray:7,5;stroke-linecap:round;stroke-linejoin:round;stroke-width:1}
		.st13 {fill:#5b9bd5;fill-opacity:1;stroke:#5b9bd5;stroke-opacity:1;stroke-width:0.28409090909091}
		.st14 {marker-end:url(#mrkr4-33);stroke:#5b9bd5;stroke-linecap:round;stroke-linejoin:round;stroke-width:1}
		.st15 {fill:#70ad47;fill-opacity:0.25;filter:url(#filter_2);stroke:#70ad47;stroke-opacity:0.25}
		.st16 {fill:url(#grad0-62);stroke:#507e31;stroke-width:0.75}
		.st17 {fill:#feffff;font-family:Calibri;font-size:0.75em}
		.st18 {stroke:#5b9bd5;stroke-linecap:round;stroke-linejoin:round;stroke-width:1}
		.st19 {fill:none;stroke:none;stroke-width:0.25}
		.st20 {fill:#5b9bd5;font-family:Calibri;font-size:1.00001em}
		.st21 {fill:url(#grad0-144);stroke:#4f87bb;stroke-width:0.75}
		.st22 {fill:#4f87bb;font-family:Calibri;font-size:0.833336em}
		.st23 {fill:#70ad47;stroke:#c7c8c8;stroke-width:0.25}
		.st24 {fill:#5b9bd5;fill-opacity:0.22;filter:url(#filter_2);stroke:#5b9bd5;stroke-linecap:round;stroke-linejoin:round;stroke-opacity:0.22}
		.st25 {fill:#5b9bd5;stroke:#c7c8c8;stroke-linecap:round;stroke-linejoin:round;stroke-width:0.25}
		.st26 {fill:url(#grad0-193);stroke:#c7c8c8;stroke-width:0.25}
		.st27 {fill:none;fill-rule:evenodd;font-size:12px;overflow:visible;stroke-linecap:square;stroke-miterlimit:3}
	]]>
	</style>

	<defs id="Patterns_And_Gradients">
		<linearGradient id="grad0-18" x1="0" y1="0" x2="1" y2="0" gradientTransform="rotate(90 0.5 0.5)">
			<stop offset="0" stop-color="#70ad47" stop-opacity="1"/>
			<stop offset="1" stop-color="#4672c4" stop-opacity="1"/>
			<stop offset="1" stop-color="#41719c" stop-opacity="1"/>
			<stop offset="1" stop-color="#cde1f2" stop-opacity="1"/>
		</linearGradient>
		<linearGradient id="grad0-62" x1="0" y1="0" x2="1" y2="0" gradientTransform="rotate(250 0.5 0.5)">
			<stop offset="0" stop-color="#61973d" stop-opacity="1"/>
			<stop offset="0.48" stop-color="#61973d" stop-opacity="1"/>
			<stop offset="0.82" stop-color="#70ad47" stop-opacity="1"/>
		</linearGradient>
		<linearGradient id="grad0-144" x1="0" y1="0" x2="1" y2="0" gradientTransform="rotate(60 0.5 0.5)">
			<stop offset="0" stop-color="#e9eff7" stop-opacity="1"/>
			<stop offset="0.24" stop-color="#f4f7fb" stop-opacity="1"/>
			<stop offset="0.54" stop-color="#feffff" stop-opacity="1"/>
		</linearGradient>
		<linearGradient id="grad0-193" x1="0" y1="0" x2="1" y2="0" gradientTransform="rotate(90 0.5 0.5)">
			<stop offset="0" stop-color="#70ad47" stop-opacity="1"/>
			<stop offset="1" stop-color="#5b9bd5" stop-opacity="1"/>
			<stop offset="1" stop-color="#41719c" stop-opacity="1"/>
			<stop offset="1" stop-color="#cde1f2" stop-opacity="1"/>
		</linearGradient>
	</defs>
	<defs id="Markers">
		<g id="lend4">
			<path d="M 2 1 L 0 0 L 2 -1 L 2 1 " style="stroke:none"/>
		</g>
		<marker id="mrkr4-33" class="st13" refX="-7.04" orient="auto" markerUnits="strokeWidth" overflow="visible">
			<use xlink:href="#lend4" transform="scale(-3.52,-3.52) "/>
		</marker>
	</defs>
	<defs id="Filters">
		<filter id="filter_2">
			<feGaussianBlur stdDeviation="2"/>
		</filter>
	</defs>
	<g>
		<title>Page-2</title>
		<g id="shape1-1" transform="translate(35.0117,-599.007)">
			<title>Rectangle.30</title>
			<desc>Dynamic Code Loader / Protected Code Loader / SGX-LKL / other...</desc>
			<g id="shadow1-2" transform="matrix(1,0,0,1,0.345598,1.97279)" class="st1">
				<rect x="0" y="622.085" width="403.519" height="44.0311" rx="18" ry="18" class="st2"/>
			</g>
			<rect x="0" y="622.085" width="403.519" height="44.0311" rx="18" ry="18" class="st3"/>
			<text x="40.16" y="647.1" class="st4">Dynamic Code Loader / Protected Code Loader / SGX-LKL / other high level user</text>		</g>
		<g id="shape2-7" transform="translate(32.5741,-448.384)">
			<title>Rectangle.1</title>
			<desc>SGX MM public APIs sgx_mm_{alloc | dealloc | commit | uncommi...</desc>
			<rect x="0" y="622.085" width="437.974" height="44.0311" class="st5"/>
			<text x="169.82" y="633.3" class="st6">SGX MM public APIs <tspan x="100.77" dy="1.2em" class="st7">sgx</tspan>_mm_{alloc | dealloc | commit | uncommit | <tspan
						x="96.25" dy="1.2em" class="st7">commit</tspan>_data| modify_type |modify_permissions}</text>		</g>
		<g id="shape3-12" transform="translate(190.606,-527.639)">
			<title>Rectangle.2</title>
			<desc>mmap</desc>
			<g id="shadow3-13" transform="matrix(1,0,0,1,0.345598,1.97279)" class="st1">
				<rect x="0" y="622.085" width="68.75" height="44.0311" rx="18" ry="18" class="st8"/>
			</g>
			<rect x="0" y="622.085" width="68.75" height="44.0311" rx="18" ry="18" class="st9"/>
			<text x="21.36" y="647.1" class="st4">mmap</text>		</g>
		<g id="shape4-20" transform="translate(280.074,-527.639)">
			<title>Rectangle.3</title>
			<desc>Malloc (heap manager)</desc>
			<g id="shadow4-21" transform="matrix(1,0,0,1,0.345598,1.97279)" class="st1">
				<rect x="0" y="622.085" width="92.6852" height="44.0311" rx="18" ry="18" class="st10"/>
			</g>
			<rect x="0" y="622.085" width="92.6852" height="44.0311" rx="18" ry="18" class="st11"/>
			<text x="32.63" y="641.1" class="st4">Malloc <tspan x="14.05" dy="1.2em" class="st7">(</tspan>heap manager)</text>		</g>
		<g id="shape5-28" transform="translate(280.074,-540.655)">
			<title>Dynamic connector</title>
			<path d="M0 657.12 L-13.68 657.12" class="st12"/>
		</g>
		<g id="shape6-34" transform="translate(326.417,-527.639)">
			<title>Dynamic connector.5</title>
			<path d="M0 666.12 L0 679.62 L-74.86 679.62 L-74.86 694.3" class="st14"/>
		</g>
		<g id="shape7-39" transform="translate(224.981,-527.639)">
			<title>Dynamic connector.6</title>
			<path d="M0 666.12 L0 679.62 L26.58 679.62 L26.58 694.3" class="st14"/>
		</g>
		<g id="shape8-44" transform="translate(399.241,-527.639)">
			<title>Rectangle.7</title>
			<desc>Reserved_memory (Intel)</desc>
			<g id="shadow8-45" transform="matrix(1,0,0,1,0.345598,1.97279)" class="st1">
				<rect x="0" y="622.085" width="92.6852" height="44.0311" rx="18" ry="18" class="st2"/>
			</g>
			<rect x="0" y="622.085" width="92.6852" height="44.0311" rx="18" ry="18" class="st3"/>
			<text x="7.97" y="641.1" class="st4">Reserved_memory <tspan x="34.11" dy="1.2em" class="st7">(</tspan>Intel)</text>		</g>
		<g id="shape9-51" transform="translate(445.583,-527.639)">
			<title>Dynamic connector.8</title>
			<path d="M0 666.12 L0 679.62 L-194.02 679.62 L-194.02 694.3" class="st14"/>
		</g>
		<g id="shape10-56" transform="translate(32.5741,-394.48)">
			<title>Rectangle.9</title>
			<desc>SGX MM implementation</desc>
			<g id="shadow10-57" transform="matrix(1,0,0,1,0.345598,1.97279)" class="st1">
				<rect x="0" y="622.085" width="437.974" height="44.0311" rx="9" ry="9" class="st15"/>
			</g>
			<rect x="0" y="622.085" width="437.974" height="44.0311" rx="9" ry="9" class="st16"/>
			<text x="167.46" y="647.1" class="st4">SGX MM implementation</text>		</g>
		<g id="shape11-64" transform="translate(39.189,-285.773)">
			<title>Rectangle.10</title>
			<desc>SGX runtime abstraction layer APIs sgx_mm_{un|}register_pfhan...</desc>
			<rect x="0" y="568.792" width="223.604" height="97.3234" class="st5"/>
			<text x="27.1" y="585.05" class="st6">SGX runtime abstraction layer APIs  <tspan x="28.66" dy="2.4em" class="st7">sgx</tspan>_mm_{un|}register_pfhandler, <tspan
						x="43.29" dy="1.2em" class="st7">sgx</tspan>_mm_is_within_enclave, <tspan x="39.25" dy="1.2em" class="st7">sgx</tspan>_mm_{alloc|modify}_ocall <tspan
						x="80.68" dy="1.2em" class="st7">sgx</tspan>_mutex-*</text>		</g>
		<g id="shape12-71" transform="translate(111.509,-527.639)">
			<title>Rectangle.11</title>
			<desc>mprotect</desc>
			<g id="shadow12-72" transform="matrix(1,0,0,1,0.345598,1.97279)" class="st1">
				<rect x="0" y="622.085" width="68.75" height="44.0311" rx="18" ry="18" class="st8"/>
			</g>
			<rect x="0" y="622.085" width="68.75" height="44.0311" rx="18" ry="18" class="st9"/>
			<text x="15.42" y="647.1" class="st4">mprotect</text>		</g>
		<g id="shape13-78" transform="translate(145.884,-527.639)">
			<title>Dynamic connector.12</title>
			<path d="M0 666.12 L0 679.62 L105.68 679.62 L105.68 694.3" class="st14"/>
		</g>
		<g id="shape14-83" transform="translate(272.642,-285.773)">
			<title>Rectangle.22</title>
			<desc>SGX MM Private APIs mm_{init | alloc | dealloc | commit | unc...</desc>
			<rect x="0" y="567.28" width="197.615" height="98.8356" class="st5"/>
			<text x="47.24" y="584.3" class="st6">SGX MM Private APIs  <tspan x="8.41" dy="2.4em" class="st7">mm</tspan>_{init | alloc | dealloc | commit | <tspan
						x="69.71" dy="1.2em" class="st7">uncommit </tspan>| <tspan x="31.23" dy="1.2em" class="st7">commit</tspan>_data| modify_type <tspan
						x="45" dy="1.2em" class="st7">|</tspan>modify_permissions}</text>		</g>
		<g id="shape15-90" transform="translate(32.4121,-527.639)">
			<title>Rectangle.24</title>
			<desc>pthread</desc>
			<g id="shadow15-91" transform="matrix(1,0,0,1,0.345598,1.97279)" class="st1">
				<rect x="0" y="622.085" width="68.75" height="44.0311" rx="18" ry="18" class="st2"/>
			</g>
			<rect x="0" y="622.085" width="68.75" height="44.0311" rx="18" ry="18" class="st9"/>
			<text x="18.19" y="647.1" class="st4">pthread</text>		</g>
		<g id="shape16-97" transform="translate(66.7871,-527.639)">
			<title>Dynamic connector.29</title>
			<path d="M0 666.12 L0 679.62 L184.77 679.62 L184.77 694.3" class="st14"/>
		</g>
		<g id="shape18-102" transform="translate(73.5836,-224.48)">
			<title>Rectangle.16</title>
			<desc>Intel/OE/other runtime Abstraction Impl</desc>
			<g id="shadow18-103" transform="matrix(1,0,0,1,0.345598,1.97279)" class="st1">
				<rect x="0" y="620.572" width="154.815" height="45.5432" rx="18" ry="18" class="st2"/>
			</g>
			<rect x="0" y="620.572" width="154.815" height="45.5432" rx="18" ry="18" class="st3"/>
			<text x="34.74" y="640.64" class="st17">Intel/OE/other runtime <tspan x="47.12" dy="1.2em" class="st7">Abstraction Impl</tspan></text>		</g>
		<g id="shape22-109" transform="translate(141.991,-286.898)">
			<title>Dynamic connector.22</title>
			<path d="M9 667.24 L9 675.95" class="st12"/>
		</g>
		<g id="shape25-114" transform="translate(18.5,-202.852)">
			<title>Sheet.25</title>
			<path d="M0 666.12 L473.43 666.12" class="st18"/>
		</g>
		<g id="shape26-117" transform="translate(337.111,-202.852)">
			<title>Sheet.26</title>
			<desc>Inside Enclave</desc>
			<rect x="0" y="646.546" width="154.815" height="19.5694" class="st19"/>
			<text x="42.96" y="659.93" class="st20">Inside Enclave</text>		</g>
		<g id="shape27-120" transform="translate(362.226,-181.224)">
			<title>Sheet.27</title>
			<desc>Outside Enclave</desc>
			<rect x="0" y="646.546" width="110" height="19.5694" class="st19"/>
			<text x="16.08" y="659.93" class="st20">Outside Enclave</text>		</g>
		<g id="shape28-123" transform="translate(73.5836,-117.023)">
			<title>Rectangle.28</title>
			<desc>SGX Enclave Common Loader</desc>
			<g id="shadow28-124" transform="matrix(1,0,0,1,0.345598,1.97279)" class="st1">
				<rect x="0" y="633.287" width="154.815" height="32.8286" rx="9" ry="9" class="st15"/>
			</g>
			<rect x="0" y="633.287" width="154.815" height="32.8286" rx="9" ry="9" class="st16"/>
			<text x="17.95" y="652.7" class="st4">SGX Enclave Common Loader</text>		</g>
		<g id="shape30-130" transform="translate(73.5836,-168.414)">
			<title>Rectangle.45</title>
			<desc>OCall Impl</desc>
			<g id="shadow30-131" transform="matrix(1,0,0,1,0.345598,1.97279)" class="st1">
				<rect x="0" y="646.546" width="154.815" height="19.5694" rx="9.78468" ry="9.78468" class="st2"/>
			</g>
			<rect x="0" y="646.546" width="154.815" height="19.5694" rx="9.78468" ry="9.78468" class="st3"/>
			<text x="56.58" y="659.33" class="st4">OCall Impl</text>		</g>
		<g id="shape31-136" transform="translate(141.991,-168.414)">
			<title>Dynamic connector.49</title>
			<path d="M9 666.12 L9 677.64" class="st12"/>
		</g>
		<g id="shape32-141" transform="translate(54.9053,-65.8045)">
			<title>Rectangle.52</title>
			<desc>Kernel</desc>
			<rect x="0" y="628.689" width="419.625" height="37.4264" class="st21"/>
			<text x="4" y="641.69" class="st22">Kernel</text>		</g>
		<g id="shape33-146" transform="translate(103.53,-75.4657)">
			<title>Rectangle.36</title>
			<desc>SGX driver</desc>
			<g id="shadow33-147" transform="matrix(1,0,0,1,0.345598,1.97279)" class="st1">
				<rect x="0" y="646.546" width="110" height="19.5694" rx="9.78468" ry="9.78468" class="st8"/>
			</g>
			<rect x="0" y="646.546" width="110" height="19.5694" rx="9.78468" ry="9.78468" class="st23"/>
			<text x="33.82" y="659.33" class="st4">SGX driver</text>		</g>
		<g id="shape34-152" transform="translate(291.718,-135.903)">
			<title>Rectangle.37</title>
			<desc>vDSO SGX interface wrapper</desc>
			<g id="shadow34-153" transform="matrix(1,0,0,1,0.345598,1.97279)" class="st1">
				<rect x="0" y="628.689" width="160.588" height="37.4264" rx="18" ry="18" class="st2"/>
			</g>
			<rect x="0" y="628.689" width="160.588" height="37.4264" rx="18" ry="18" class="st3"/>
			<text x="22.51" y="650.4" class="st4">vDSO SGX interface wrapper</text>		</g>
		<g id="shape35-158" transform="translate(141.991,-224.48)">
			<title>Dynamic connector.35</title>
			<path d="M9 666.12 L9 695.57" class="st12"/>
		</g>
		<g id="shape36-163" transform="translate(291.155,-224.48)">
			<title>Rectangle.36</title>
			<desc>Intel/OE/other runtime Initialization routines</desc>
			<g id="shadow36-164" transform="matrix(1,0,0,1,0.345598,1.97279)" class="st1">
				<rect x="0" y="620.572" width="160.588" height="45.5432" rx="18" ry="18" class="st24"/>
			</g>
			<rect x="0" y="620.572" width="160.588" height="45.5432" rx="18" ry="18" class="st25"/>
			<text x="37.62" y="640.64" class="st17">Intel/OE/other runtime <tspan x="41.56" dy="1.2em" class="st7">Initialization routines</tspan></text>		</g>
		<g id="shape37-170" transform="translate(362.449,-268.898)">
			<title>Dynamic connector.37</title>
			<path d="M9 664.99 L9 656.28" class="st12"/>
		</g>
		<g id="shape38-175" transform="translate(114.53,-29.0372)">
			<title>Rectangle.53</title>
			<desc>common</desc>
			<g id="shadow38-176" transform="matrix(1,0,0,1,0.345598,1.97279)" class="st1">
				<rect x="0" y="644.069" width="82.4496" height="22.0465" rx="11.0232" ry="11.0232" class="st8"/>
			</g>
			<rect x="0" y="644.069" width="82.4496" height="22.0465" rx="11.0232" ry="11.0232" class="st23"/>
			<text x="23.22" y="658.09" class="st4">common</text>		</g>
		<g id="shape39-181" transform="translate(223.98,-27.0228)">
			<title>Rectangle</title>
			<desc>Runtime specific</desc>
			<g id="shadow39-182" transform="matrix(1,0,0,1,0.345598,1.97279)" class="st1">
				<rect x="0" y="642.055" width="82.4496" height="24.0608" rx="12.0304" ry="12.0304" class="st2"/>
			</g>
			<rect x="0" y="642.055" width="82.4496" height="24.0608" rx="12.0304" ry="12.0304" class="st3"/>
			<text x="7.7" y="657.09" class="st4">Runtime specific</text>		</g>
		<g id="shape40-187" transform="translate(333.429,-27.0228)">
			<title>Rectangle.40</title>
			<desc>Maybe common</desc>
			<g id="shadow40-188" transform="matrix(1,0,0,1,0.345598,1.97279)" class="st1">
				<rect x="0" y="644.069" width="82.4496" height="22.0465" rx="11.0232" ry="11.0232" class="st2"/>
			</g>
			<rect x="0" y="644.069" width="82.4496" height="22.0465" rx="11.0232" ry="11.0232" class="st26"/>
			<text x="8.04" y="658.09" class="st4">Maybe common</text>		</g>
	</g>
</svg>
