<?xml version="1.0" encoding="UTF-8" standalone="no"?>
<!DOCTYPE svg PUBLIC "-//W3C//DTD SVG 1.1//EN" "http://www.w3.org/Graphics/SVG/1.1/DTD/svg11.dtd">
<!-- Generated by Microsoft Visio, SVG Export SGX2-trim.svg Page-1 -->
<svg xmlns="http://www.w3.org/2000/svg" xmlns:xlink="http://www.w3.org/1999/xlink" xmlns:ev="http://www.w3.org/2001/xml-events"
		width="5.8225in" height="4.805in" viewBox="0 0 419.22 345.96" xml:space="preserve" color-interpolation-filters="sRGB"
		class="st11">
	<style type="text/css">
	<![CDATA[
		.st1 {fill:#9ab3d1;stroke:#1f497d;stroke-linecap:round;stroke-linejoin:round;stroke-width:0.72}
		.st2 {stroke:#1f497d;stroke-dasharray:5.04,3.6;stroke-linecap:round;stroke-linejoin:round;stroke-width:0.72}
		.st3 {fill:#000000;font-family:Arial;font-size:0.666664em;font-weight:bold}
		.st4 {marker-end:url(#mrkr4-46);stroke:#1f497d;stroke-linecap:round;stroke-linejoin:round;stroke-width:0.25}
		.st5 {fill:#1f497d;fill-opacity:1;stroke:#1f497d;stroke-opacity:1;stroke-width:0.07163323782235}
		.st6 {fill:#ffffff;stroke:none;stroke-linecap:butt;stroke-width:7.2}
		.st7 {fill:#000000;font-family:Arial;font-size:0.666664em}
		.st8 {font-size:1em}
		.st9 {fill:#9ab3d1;fill-opacity:0;stroke:#1f497d;stroke-linecap:round;stroke-linejoin:round;stroke-width:0.72}
		.st10 {marker-end:url(#mrkr3-90);stroke:#1f497d;stroke-dasharray:1.75,1.25;stroke-linecap:round;stroke-linejoin:round;stroke-width:0.25}
		.st11 {fill:none;fill-rule:evenodd;font-size:12px;overflow:visible;stroke-linecap:square;stroke-miterlimit:3}
	]]>
	</style>

	<defs id="Markers">
		<g id="lend4">
			<path d="M 2 1 L 0 0 L 2 -1 L 2 1 " style="stroke:none"/>
		</g>
		<marker id="mrkr4-46" class="st5" refX="-27.92" orient="auto" markerUnits="strokeWidth" overflow="visible">
			<use xlink:href="#lend4" transform="scale(-13.96,-13.96) "/>
		</marker>
		<g id="lend3">
			<path d="M 2 1 L 0 0 L 2 -1 " style="stroke-linecap:round;stroke-linejoin:round;fill:none"/>
		</g>
		<marker id="mrkr3-90" class="st5" orient="auto" markerUnits="strokeWidth" overflow="visible">
			<use xlink:href="#lend3" transform="scale(-13.96,-13.96) "/>
		</marker>
	</defs>
	<g>
		<title>Page-1</title>
		<g id="group69-1" transform="translate(0.36,-18)">
			<title>Sheet.69</title>
			<g id="group1-2" transform="translate(265.5,-298.8)">
				<title>Object lifeline</title>
				<desc>Kernel</desc>
				<g id="shape2-3">
					<title>Sheet.2</title>
					<rect x="0" y="320.76" width="54" height="25.2" class="st1"/>
				</g>
				<g id="shape3-5" transform="translate(18,-28.8)">
					<title>Sheet.3</title>
					<path d="M9 345.96 a0 0 0 1 1 0 0 a0 0 0 1 1 0 0 Z" class="st1"/>
				</g>
				<g id="shape4-7" transform="translate(18,307.8)">
					<title>Sheet.4</title>
				</g>
				<g id="shape5-9" transform="translate(372.96,345.96) rotate(90)">
					<title>Sheet.5</title>
					<path d="M0 345.96 L289.8 345.96" class="st2"/>
				</g>
				<g id="shape1-12">
					<rect x="0" y="320.76" width="54" height="25.2" class="st1"/>
					<text x="14.55" y="335.76" class="st3">Kernel</text>				</g>
			</g>
			<g id="group12-15" transform="translate(49.5,-298.8)">
				<title>Object lifeline.12</title>
				<desc>Enclave</desc>
				<g id="shape13-16">
					<title>Sheet.13</title>
					<rect x="0" y="320.76" width="54" height="25.2" class="st1"/>
				</g>
				<g id="shape14-18" transform="translate(18,-28.8)">
					<title>Sheet.14</title>
					<path d="M9 345.96 a0 0 0 1 1 0 0 a0 0 0 1 1 0 0 Z" class="st1"/>
				</g>
				<g id="shape15-20" transform="translate(18,316.8)">
					<title>Sheet.15</title>
				</g>
				<g id="shape16-22" transform="translate(372.96,345.96) rotate(90)">
					<title>Sheet.16</title>
					<path d="M0 345.96 L298.8 345.96" class="st2"/>
				</g>
				<g id="shape12-25">
					<rect x="0" y="320.76" width="54" height="25.2" class="st1"/>
					<text x="11.88" y="335.76" class="st3">Enclave</text>				</g>
			</g>
			<g id="group22-28" transform="translate(364.5,-298.8)">
				<title>Object lifeline.22</title>
				<desc>CPU-sgx</desc>
				<g id="shape23-29">
					<title>Sheet.23</title>
					<rect x="0" y="320.76" width="54" height="25.2" class="st1"/>
				</g>
				<g id="shape24-31" transform="translate(18,-28.8)">
					<title>Sheet.24</title>
					<path d="M9 345.96 a0 0 0 1 1 0 0 a0 0 0 1 1 0 0 Z" class="st1"/>
				</g>
				<g id="shape25-33" transform="translate(18,307.8)">
					<title>Sheet.25</title>
				</g>
				<g id="shape26-35" transform="translate(372.96,345.96) rotate(90)">
					<title>Sheet.26</title>
					<path d="M0 345.96 L289.8 345.96" class="st2"/>
				</g>
				<g id="shape22-38">
					<rect x="0" y="320.76" width="54" height="25.2" class="st1"/>
					<text x="10.33" y="335.76" class="st3">CPU-sgx</text>				</g>
			</g>
			<g id="shape30-41" transform="translate(76.5,-289.8)">
				<title>Message.30</title>
				<desc>ocall_mprotect (addr, len, TRIM)</desc>
				<path d="M0 354.96 L96.52 354.96" class="st4"/>
				<rect x="16.8171" y="338.16" width="60.4567" height="19.1997" class="st6"/>
				<text x="21.03" y="345.36" class="st7">ocall_mprotect <tspan x="16.82" dy="1.2em" class="st8">(</tspan>addr, len, TRIM)</text>			</g>
			<g id="shape34-50" transform="translate(184.5,-253.8)">
				<title>Message.34</title>
				<desc>mprotect (addr, len, PROT_TRIM)</desc>
				<path d="M0 336.96 L101.02 336.96" class="st4"/>
				<rect x="10.4357" y="311.16" width="87.1284" height="19.1997" class="st6"/>
				<text x="38.44" y="318.36" class="st7">mprotect <tspan x="10.44" dy="1.2em" class="st8">(</tspan>addr, len, PROT_TRIM)</text>			</g>
			<g id="group35-58" transform="translate(202.5,-220.5)">
				<title>Loop fragment</title>
				<g id="shape35-59">
					<rect x="0" y="314.46" width="207" height="31.5" class="st9"/>
				</g>
				<g id="shape36-61" transform="translate(0,-13.8964)">
					<title>Sheet.36</title>
					<desc>for each page</desc>
					<path d="M0 345.96 L56.8 345.96 L64 338.76 L64 328.36 L0 328.36 L0 345.96 Z" class="st1"/>
					<text x="4" y="339.56" class="st3">for each page</text>				</g>
			</g>
			<g id="shape38-64" transform="translate(292.5,-235.8)">
				<title>Message.38</title>
				<desc>EMODT(PT_TRIM)</desc>
				<path d="M0 336.96 L92.02 336.96" class="st4"/>
				<rect x="15.2813" y="332.16" width="68.4374" height="9.59985" class="st6"/>
				<text x="15.28" y="339.36" class="st7">EMODT(PT_TRIM)</text>			</g>
			<g id="shape41-71" transform="translate(292.5,-199.8)">
				<title>Message.41</title>
				<desc>ETRACK</desc>
				<path d="M0 336.96 L92.02 336.96" class="st4"/>
				<rect x="33.2755" y="333.96" width="32.4489" height="9.59985" class="st6"/>
				<text x="33.28" y="341.16" class="st7">ETRACK</text>			</g>
			<g id="shape42-78" transform="translate(283.5,-198)">
				<title>Message.42</title>
				<desc>send IPI</desc>
				<path d="M9 345.96 L27 345.96 L27 363.96 L15.98 363.96" class="st4"/>
				<rect x="30.3245" y="347.46" width="29.3511" height="9.59985" class="st6"/>
				<text x="30.32" y="354.66" class="st7">send IPI</text>			</g>
			<g id="shape43-85" transform="translate(288,-163.8)">
				<title>Message.43</title>
				<path d="M0 336.96 L-103.5 336.96" class="st10"/>
			</g>
			<g id="shape44-91" transform="translate(180,-163.8)">
				<title>Message.44</title>
				<path d="M0 336.96 L-103.5 336.96" class="st10"/>
			</g>
			<g id="group47-96" transform="translate(0,-127.8)">
				<title>Loop fragment.47</title>
				<g id="shape47-97">
					<rect x="0" y="307.26" width="409.5" height="38.7" class="st9"/>
				</g>
				<g id="shape48-99" transform="translate(0,-21.0964)">
					<title>Sheet.48</title>
					<desc>for each page</desc>
					<path d="M0 345.96 L56.8 345.96 L64 338.76 L64 328.36 L0 328.36 L0 345.96 Z" class="st1"/>
					<text x="4" y="339.56" class="st3">for each page</text>				</g>
			</g>
			<g id="shape50-102" transform="translate(76.5,-145.8)">
				<title>Message.50</title>
				<desc>EACCEPT(PT_TRIM)</desc>
				<path d="M0 336.96 L308.02 336.96" class="st4"/>
				<rect x="118.832" y="332.16" width="77.3355" height="9.59985" class="st6"/>
				<text x="118.83" y="339.36" class="st7">EACCEPT(PT_TRIM)</text>			</g>
			<g id="shape53-109" transform="translate(391.5,-127.8)">
				<title>Return Message.53</title>
				<path d="M0 336.96 L-315 336.96" class="st10"/>
			</g>
			<g id="shape58-114" transform="translate(81,-91.8)">
				<title>Message.58</title>
				<desc>ocall_mprotect (addr, len)</desc>
				<path d="M0 336.96 L92.02 336.96" class="st4"/>
				<rect x="23.4883" y="327.36" width="52.0233" height="19.1997" class="st6"/>
				<text x="23.49" y="334.56" class="st7">ocall_mprotect <tspan x="31.27" dy="1.2em" class="st8">(</tspan>addr, len)</text>			</g>
			<g id="shape59-122" transform="translate(184.5,-91.8)">
				<title>Message.59</title>
				<desc>mprotect (addr, len, PROT_NONE)</desc>
				<path d="M0 336.96 L101.02 336.96" class="st4"/>
				<rect x="-10.8168" y="315.66" width="92.9136" height="19.1997" class="st6"/>
				<text x="20.08" y="322.86" class="st7">mprotect <tspan x="-10.82" dy="1.2em" class="st8"> </tspan>(addr, len, PROT_NONE)</text>			</g>
			<g id="shape60-130" transform="translate(292.5,-37.8)">
				<title>Message.60</title>
				<desc>EREMOVE</desc>
				<path d="M0 336.96 L92.02 336.96" class="st4"/>
				<rect x="29.4963" y="332.16" width="40.0073" height="9.59985" class="st6"/>
				<text x="29.5" y="339.36" class="st7">EREMOVE</text>			</g>
			<g id="shape64-137" transform="translate(292.5,-37.8)">
				<title>Message.64</title>
				<path d="M0 354.96 L-108 354.96" class="st10"/>
			</g>
			<g id="shape65-142" transform="translate(184.5,-19.8)">
				<title>Return Message</title>
				<path d="M0 336.96 L-108 336.96" class="st10"/>
			</g>
			<g id="shape67-147" transform="translate(283.5,-82.8)">
				<title>Message.67</title>
				<desc>unmap PTE</desc>
				<path d="M9 345.96 L27 345.96 L27 363.96 L15.98 363.96" class="st4"/>
				<rect x="32.8792" y="347.46" width="42.2416" height="9.59985" class="st6"/>
				<text x="32.88" y="354.66" class="st7">unmap PTE</text>			</g>
			<g id="shape68-154" transform="translate(67.5,-18)">
				<title>Self Message</title>
				<desc>record range deallocated</desc>
				<path d="M9 345.96 L27 345.96 L27 363.96 L15.98 363.96" class="st4"/>
				<rect x="31.3202" y="347.16" width="45.3595" height="19.1997" class="st6"/>
				<text x="31.32" y="354.36" class="st7">record range <tspan x="33.54" dy="1.2em" class="st8">deallocated</tspan></text>			</g>
			<g id="group61-162" transform="translate(179.64,-36)">
				<title>Loop fragment.61</title>
				<g id="shape61-163">
					<rect x="0" y="287.46" width="229.86" height="58.5" class="st9"/>
				</g>
				<g id="shape62-165" transform="translate(0,-40.8964)">
					<title>Sheet.62</title>
					<desc>for each page of PT_TRIM</desc>
					<path d="M0 345.96 L101.26 345.96 L108.46 338.76 L108.46 328.36 L0 328.36 L0 345.96 Z" class="st1"/>
					<text x="4" y="339.56" class="st3">for each page of PT_TRIM</text>				</g>
			</g>
			<g id="group6-168" transform="translate(157.5,-298.8)">
				<title>Object lifeline.6</title>
				<desc>Untrusted Runtime</desc>
				<g id="shape7-169">
					<title>Sheet.7</title>
					<rect x="0" y="320.76" width="54" height="25.2" class="st1"/>
				</g>
				<g id="shape8-171" transform="translate(18,-28.8)">
					<title>Sheet.8</title>
					<path d="M9 345.96 a0 0 0 1 1 0 0 a0 0 0 1 1 0 0 Z" class="st1"/>
				</g>
				<g id="shape9-173" transform="translate(18,303.3)">
					<title>Sheet.9</title>
				</g>
				<g id="shape10-175" transform="translate(372.96,345.96) rotate(90)">
					<title>Sheet.10</title>
					<path d="M0 345.96 L285.3 345.96" class="st2"/>
				</g>
				<g id="shape6-178">
					<rect x="0" y="320.76" width="54" height="25.2" class="st1"/>
					<text x="8.11" y="330.96" class="st3">Untrusted <tspan x="11" dy="1.2em" class="st8">Runtime</tspan></text>				</g>
			</g>
		</g>
	</g>
</svg>
