<?xml version="1.0" encoding="UTF-8" standalone="no"?>
<!DOCTYPE svg PUBLIC "-//W3C//DTD SVG 1.1//EN" "http://www.w3.org/Graphics/SVG/1.1/DTD/svg11.dtd">
<!-- Generated by Microsoft Visio, SVG Export SGX2-perms.svg Page-1 -->
<svg xmlns="http://www.w3.org/2000/svg" xmlns:xlink="http://www.w3.org/1999/xlink" xmlns:ev="http://www.w3.org/2001/xml-events"
		width="5.8225in" height="3.93in" viewBox="0 0 419.22 282.96" xml:space="preserve" color-interpolation-filters="sRGB"
		class="st12">
	<style type="text/css">
	<![CDATA[
		.st1 {fill:#9ab3d1;stroke:#1f497d;stroke-linecap:round;stroke-linejoin:round;stroke-width:0.72}
		.st2 {stroke:#1f497d;stroke-dasharray:5.04,3.6;stroke-linecap:round;stroke-linejoin:round;stroke-width:0.72}
		.st3 {fill:#000000;font-family:Arial;font-size:0.666664em;font-weight:bold}
		.st4 {font-size:1em}
		.st5 {marker-end:url(#mrkr4-61);stroke:#1f497d;stroke-linecap:round;stroke-linejoin:round;stroke-width:0.25}
		.st6 {fill:#1f497d;fill-opacity:1;stroke:#1f497d;stroke-opacity:1;stroke-width:0.07163323782235}
		.st7 {fill:#ffffff;stroke:none;stroke-linecap:butt;stroke-width:7.2}
		.st8 {fill:#000000;font-family:Arial;font-size:0.666664em}
		.st9 {fill:#9ab3d1;fill-opacity:0;stroke:#1f497d;stroke-linecap:round;stroke-linejoin:round;stroke-width:0.72}
		.st10 {marker-end:url(#mrkr3-113);stroke:#1f497d;stroke-dasharray:1.75,1.25;stroke-linecap:round;stroke-linejoin:round;stroke-width:0.25}
		.st11 {fill:none}
		.st12 {fill:none;fill-rule:evenodd;font-size:12px;overflow:visible;stroke-linecap:square;stroke-miterlimit:3}
	]]>
	</style>

	<defs id="Markers">
		<g id="lend4">
			<path d="M 2 1 L 0 0 L 2 -1 L 2 1 " style="stroke:none"/>
		</g>
		<marker id="mrkr4-61" class="st6" refX="-27.92" orient="auto" markerUnits="strokeWidth" overflow="visible">
			<use xlink:href="#lend4" transform="scale(-13.96,-13.96) "/>
		</marker>
		<g id="lend3">
			<path d="M 2 1 L 0 0 L 2 -1 " style="stroke-linecap:round;stroke-linejoin:round;fill:none"/>
		</g>
		<marker id="mrkr3-113" class="st6" orient="auto" markerUnits="strokeWidth" overflow="visible">
			<use xlink:href="#lend3" transform="scale(-13.96,-13.96) "/>
		</marker>
	</defs>
	<g>
		<title>Page-1</title>
		<g id="group104-1" transform="translate(0.36,-27)">
			<title>Sheet.104</title>
			<g id="group102-2">
				<title>Sheet.102</title>
				<g id="group1-3" transform="translate(265.5,-226.8)">
					<title>Object lifeline</title>
					<desc>Kernel</desc>
					<g id="shape2-4">
						<title>Sheet.2</title>
						<rect x="0" y="257.76" width="54" height="25.2" class="st1"/>
					</g>
					<g id="shape3-6" transform="translate(18,-28.8)">
						<title>Sheet.3</title>
						<path d="M9 282.96 a0 0 0 1 1 0 0 a0 0 0 1 1 0 0 Z" class="st1"/>
					</g>
					<g id="shape4-8" transform="translate(18,253.8)">
						<title>Sheet.4</title>
					</g>
					<g id="shape5-10" transform="translate(309.96,282.96) rotate(90)">
						<title>Sheet.5</title>
						<path d="M0 282.96 L235.8 282.96" class="st2"/>
					</g>
					<g id="shape1-13">
						<rect x="0" y="257.76" width="54" height="25.2" class="st1"/>
						<text x="14.55" y="272.76" class="st3">Kernel</text>					</g>
				</g>
				<g id="group6-16" transform="translate(157.5,-226.8)">
					<title>Object lifeline.6</title>
					<desc>Untrusted Runtime</desc>
					<g id="shape7-17">
						<title>Sheet.7</title>
						<rect x="0" y="257.76" width="54" height="25.2" class="st1"/>
					</g>
					<g id="shape8-19" transform="translate(18,-28.8)">
						<title>Sheet.8</title>
						<path d="M9 282.96 a0 0 0 1 1 0 0 a0 0 0 1 1 0 0 Z" class="st1"/>
					</g>
					<g id="shape9-21" transform="translate(18,253.8)">
						<title>Sheet.9</title>
					</g>
					<g id="shape10-23" transform="translate(309.96,282.96) rotate(90)">
						<title>Sheet.10</title>
						<path d="M0 282.96 L235.8 282.96" class="st2"/>
					</g>
					<g id="shape6-26">
						<rect x="0" y="257.76" width="54" height="25.2" class="st1"/>
						<text x="8.11" y="267.96" class="st3">Untrusted <tspan x="11" dy="1.2em" class="st4">Runtime</tspan></text>					</g>
				</g>
				<g id="group12-30" transform="translate(49.5,-226.8)">
					<title>Object lifeline.12</title>
					<desc>Enclave</desc>
					<g id="shape13-31">
						<title>Sheet.13</title>
						<rect x="0" y="257.76" width="54" height="25.2" class="st1"/>
					</g>
					<g id="shape14-33" transform="translate(18,-28.8)">
						<title>Sheet.14</title>
						<path d="M9 282.96 a0 0 0 1 1 0 0 a0 0 0 1 1 0 0 Z" class="st1"/>
					</g>
					<g id="shape15-35" transform="translate(18,253.8)">
						<title>Sheet.15</title>
					</g>
					<g id="shape16-37" transform="translate(309.96,282.96) rotate(90)">
						<title>Sheet.16</title>
						<path d="M0 282.96 L235.8 282.96" class="st2"/>
					</g>
					<g id="shape12-40">
						<rect x="0" y="257.76" width="54" height="25.2" class="st1"/>
						<text x="11.88" y="272.76" class="st3">Enclave</text>					</g>
				</g>
				<g id="group22-43" transform="translate(364.5,-226.8)">
					<title>Object lifeline.22</title>
					<desc>SGX</desc>
					<g id="shape23-44">
						<title>Sheet.23</title>
						<rect x="0" y="257.76" width="54" height="25.2" class="st1"/>
					</g>
					<g id="shape24-46" transform="translate(18,-28.8)">
						<title>Sheet.24</title>
						<path d="M9 282.96 a0 0 0 1 1 0 0 a0 0 0 1 1 0 0 Z" class="st1"/>
					</g>
					<g id="shape25-48" transform="translate(18,253.8)">
						<title>Sheet.25</title>
					</g>
					<g id="shape26-50" transform="translate(309.96,282.96) rotate(90)">
						<title>Sheet.26</title>
						<path d="M0 282.96 L235.8 282.96" class="st2"/>
					</g>
					<g id="shape22-53">
						<rect x="0" y="257.76" width="54" height="25.2" class="st1"/>
						<text x="18.55" y="272.76" class="st3">SGX</text>					</g>
				</g>
				<g id="shape30-56" transform="translate(81,-199.8)">
					<title>Message.30</title>
					<desc>ocall_mprotect (addr,len, perms)</desc>
					<path d="M0 273.96 L92.02 273.96" class="st5"/>
					<rect x="14.5449" y="257.16" width="60.9101" height="19.1997" class="st7"/>
					<text x="18.99" y="264.36" class="st8">ocall_mprotect <tspan x="14.54" dy="1.2em" class="st4">(</tspan>addr,len, perms)</text>				</g>
				<g id="shape34-65" transform="translate(184.5,-199.8)">
					<title>Message.34</title>
					<desc>mprotect (addr, len, perms)</desc>
					<path d="M0 273.96 L101.02 273.96" class="st5"/>
					<rect x="17.5245" y="257.16" width="63.1327" height="19.1997" class="st7"/>
					<text x="33.53" y="264.36" class="st8">mprotect <tspan x="17.52" dy="1.2em" class="st4">(</tspan>addr, len, perms)</text>				</g>
				<g id="group35-73" transform="translate(202.5,-144)">
					<title>Loop fragment</title>
					<g id="shape35-74">
						<rect x="0" y="228.96" width="207" height="54" class="st9"/>
					</g>
					<g id="shape36-76" transform="translate(0,-26.7965)">
						<title>Sheet.36</title>
						<desc>for each page if perms&#60;prev perms</desc>
						<path d="M0 282.96 L81.95 282.96 L89.15 275.76 L89.15 255.76 L0 255.76 L0 282.96 Z" class="st1"/>
						<text x="4" y="266.96" class="st3">for each page <tspan x="4" dy="1.2em" class="st4">if perms</tspan>&#60;prev perms</text>					</g>
				</g>
				<g id="shape38-80" transform="translate(292.5,-181.8)">
					<title>Message.38</title>
					<desc>EMODPR(perms)</desc>
					<path d="M0 273.96 L92.02 273.96" class="st5"/>
					<rect x="18.1659" y="269.16" width="62.6682" height="9.59985" class="st7"/>
					<text x="18.17" y="276.36" class="st8">EMODPR(perms)</text>				</g>
				<g id="shape39-87" transform="translate(283.5,-172.8)">
					<title>Message.39</title>
					<desc>update PTE</desc>
					<path d="M9 282.96 L27 282.96 L27 300.96 L15.98 300.96" class="st5"/>
					<rect x="32.8753" y="288.96" width="42.2493" height="9.59985" class="st7"/>
					<text x="32.88" y="296.16" class="st8">update PTE</text>				</g>
				<g id="shape41-94" transform="translate(292.5,-121.5)">
					<title>Message.41</title>
					<desc>ETRACK</desc>
					<path d="M0 273.96 L92.02 273.96" class="st5"/>
					<rect x="33.2755" y="264.66" width="32.4489" height="9.59985" class="st7"/>
					<text x="33.28" y="271.86" class="st8">ETRACK</text>				</g>
				<g id="shape42-101" transform="translate(283.5,-126)">
					<title>Message.42</title>
					<desc>send IPI</desc>
					<path d="M9 282.96 L27 282.96 L27 300.96 L15.98 300.96" class="st5"/>
					<rect x="30.3245" y="284.46" width="29.3511" height="9.59985" class="st7"/>
					<text x="30.32" y="291.66" class="st8">send IPI</text>				</g>
				<g id="shape43-108" transform="translate(292.5,-91.8)">
					<title>Message.43</title>
					<path d="M0 273.96 L-108 273.96" class="st10"/>
				</g>
				<g id="shape44-114" transform="translate(180,-91.8)">
					<title>Message.44</title>
					<path d="M0 273.96 L-103.5 273.96" class="st10"/>
				</g>
				<g id="group47-119">
					<title>Loop fragment.47</title>
					<g id="shape47-120">
						<rect x="0" y="197.46" width="409.5" height="85.5" class="st9"/>
					</g>
					<g id="shape48-122" transform="translate(0,-67.8964)">
						<title>Sheet.48</title>
						<desc>for each page</desc>
						<path d="M0 282.96 L56.8 282.96 L64 275.76 L64 265.36 L0 265.36 L0 282.96 Z" class="st1"/>
						<text x="4" y="276.56" class="st3">for each page</text>					</g>
				</g>
				<g id="shape50-125" transform="translate(76.5,-55.8)">
					<title>Message.50</title>
					<desc>EMODPE(perms)</desc>
					<path d="M0 273.96 L308.02 273.96" class="st5"/>
					<rect x="126.387" y="269.16" width="62.2266" height="9.59985" class="st7"/>
					<text x="126.39" y="276.36" class="st8">EMODPE(perms)</text>				</g>
				<g id="shape53-132" transform="translate(391.5,-37.8)">
					<title>Return Message.53</title>
					<path d="M0 273.96 L-315 273.96" class="st10"/>
				</g>
				<g id="shape100-137" transform="translate(81,-19.8)">
					<title>Message.100</title>
					<desc>EACCEPT(perms)</desc>
					<path d="M0 273.96 L303.52 273.96" class="st5"/>
					<rect x="122.58" y="269.16" width="65.3398" height="9.59985" class="st7"/>
					<text x="122.58" y="276.36" class="st8">EACCEPT(perms)</text>				</g>
				<g id="shape101-144" transform="translate(391.5,-1.8)">
					<title>Return Message.101</title>
					<path d="M0 273.96 L-315 273.96" class="st10"/>
				</g>
			</g>
			<g id="shape103-149" transform="translate(24.39,-4.5)">
				<title>Interaction operand</title>
				<desc>[if EMODPR done]</desc>
				<path d="M0 282.96 L384.75 282.96 L384.75 244.71 L0 244.71 L0 282.96 Z" class="st11"/>
				<path d="M384.75 244.71 L0 244.71" class="st2"/>
				<text x="4" y="255.91" class="st8">[if EMODPR done]</text>			</g>
		</g>
	</g>
</svg>
